<svg width="50.000000" height="50.000000" viewBox="0 0 50 50" fill="none" xmlns="http://www.w3.org/2000/svg" xmlns:xlink="http://www.w3.org/1999/xlink">
	
	<g id='codeSvg'>
		<path d="M18.3125 42.0645L27.2623 6.6875L31.4375 7.87244L22.4878 43.3125L18.3125 42.0645Z" fill="#7572D5" fill-opacity="1.000000" fill-rule="evenodd"/>
		<path d="M13.5025 12.6875L16.5625 15.9277L7.99501 25.0001L16.5625 34.0721L13.5025 37.3125L1.875 25.0001L13.5025 12.6875Z" fill="#7572D5" fill-opacity="1.000000" fill-rule="evenodd"/>
		<path d="M36.4976 12.6875L33.4375 15.9277L42.0051 25.0001L33.4375 34.0721L36.4976 37.3125L48.125 25.0001L36.4976 12.6875Z" fill="#7572D5" fill-opacity="1.000000" fill-rule="evenodd"/>
	</g>
	<g id='css'>
			<path d="M38.0508 10.8438L12.946 10.8376L13.3515 15.7546L32.6381 15.7577L32.1519 20.8502L19.5034 20.8502L19.9607 25.6742L31.7357 25.6742L31.0392 32.2806L25.4969 33.7886L19.8662 32.2701L19.508 28.3135L14.5358 28.3135L15.0876 35.5411L25.4969 38.7341L35.7309 35.8652L38.0493 10.8452L38.0508 10.8438ZM5.49841 2.56873L45.4984 2.56873L41.86 42.9999L25.4542 47.5687L9.13991 42.9968L5.49841 2.56873Z" fill="#7572D5" fill-opacity="1.000000" fill-rule="nonzero"/>

	</g>
	<g id="react">
			<path d="M47.8125 25C47.8125 22.0833 44.6875 19.375 39.4792 17.5L38.5417 17.1875L38.5417 16.7708C39.6875 11.0416 38.8542 6.77075 36.25 5.20825C33.6458 3.64575 29.7917 5.10413 25.625 8.75L25 9.375L24.7917 9.16663L24.5833 9.16663C20.3125 5.20825 16.1458 3.85413 13.5417 5.3125C10.9375 6.77075 10.2083 10.8333 11.25 16.1458C11.3596 16.4838 11.4295 16.8334 11.4583 17.1875L10.3125 17.6041C5.20831 19.375 2.1875 22.0833 2.1875 25C2.1875 27.9166 5.52081 30.8333 10.7292 32.7083L11.4583 32.9166C11.3297 33.2854 11.2593 33.672 11.25 34.0625C10.2083 39.2708 11.1458 43.2291 13.5417 44.6875C15.9375 46.1458 20.3125 44.7916 24.4792 41.1458L25.1042 40.625L25.9375 41.4583C28.8542 43.9583 31.7708 45.3125 34.0625 45.3125C34.8708 45.3309 35.6671 45.1138 36.3542 44.6875C38.9583 43.2291 39.8958 38.9583 38.75 33.5416L38.75 33.3333C38.705 33.1619 38.6702 32.988 38.6458 32.8125L38.9583 32.8125C44.4792 30.8333 47.8125 28.0208 47.8125 25ZM44.7917 25C44.7917 26.25 42.5 28.4375 38.0208 29.8958L37.8125 29.8958C37.2664 28.2202 36.6051 26.5844 35.8333 25C36.5625 23.3333 37.1875 21.6666 37.7083 20.1041L38.5417 20.3125C42.7083 21.7708 44.7917 23.75 44.7917 25ZM27.9167 39.1666L27.0833 38.5416C28.2761 37.2201 29.3892 35.8287 30.4167 34.375L35.7292 33.5416C35.8333 33.75 35.8333 33.9583 35.9375 34.0625C36.3087 35.9492 36.379 37.8829 36.1458 39.7916C35.9995 40.7045 35.5609 41.5452 34.8958 42.1875C33.8542 42.8125 31.0417 41.9791 27.9167 39.1666ZM26.5625 34.5833L25.1042 36.4583L23.4375 34.5833L26.5625 34.5833ZM12.2917 20C12.8152 21.7174 13.4771 23.3895 14.2708 25C13.4764 26.646 12.8146 28.3528 12.2917 30.1041L11.6667 29.8958C9.84259 29.3201 8.14539 28.4008 6.66669 27.1875C6.28375 26.9456 5.95605 26.6257 5.70477 26.2489C5.45355 25.8719 5.28442 25.4465 5.20831 25C5.20831 23.75 7.29169 21.7708 11.25 20.4166L12.2917 20ZM23.4375 15.4166L25 13.6458L26.5625 15.4166L23.4375 15.4166ZM34.8958 7.8125C36.0417 8.4375 36.6667 11.5625 35.7292 16.1458C35.7339 16.2023 35.7272 16.259 35.7093 16.3127C35.6913 16.3665 35.6627 16.416 35.625 16.4583L30.4167 15.625C29.3892 14.1713 28.2761 12.7799 27.0833 11.4583L27.7083 10.9375C31.0417 8.02075 33.75 7.1875 34.8958 7.8125ZM17.5 18.8541L16.6667 20.2083L15.9375 21.5625C15.625 20.8333 15.4167 20.1041 15.1042 19.2708L17.5 18.8541ZM15.1042 30.7291C15.4167 30 15.625 29.2708 15.9375 28.4375L16.6667 29.7916L17.5 31.1458L15.1042 30.7291ZM32.5 25C31.9699 26.1421 31.3788 27.2548 30.7292 28.3333C30.1042 29.4791 29.375 30.5208 28.75 31.5625L21.25 31.5625C20.5208 30.4166 19.7917 29.375 19.2708 28.3333C18.6161 27.2577 18.0248 26.1447 17.5 25C18.0054 23.8458 18.5974 22.7316 19.2708 21.6666C19.8693 20.5874 20.5302 19.5439 21.25 18.5416C23.7457 18.3334 26.2543 18.3334 28.75 18.5416C29.4792 19.5833 30.1042 20.625 30.7292 21.6666C31.4026 22.7316 31.9946 23.8458 32.5 25ZM33.3333 20.2083L32.5 18.8541L34.8958 19.375C34.6639 20.1207 34.3856 20.8513 34.0625 21.5625L33.3333 20.2083ZM32.5 31.1458L33.3333 29.7916L34.0625 28.3333L35 30.7291L32.5 31.1458ZM22.8125 11.3541L22.9167 11.3541L19.5833 15.5208L14.375 16.3541C14.2708 16.0416 14.2708 15.8333 14.1667 15.5208C13.3333 11.25 13.9583 8.33325 15 7.8125C15.2766 7.63086 15.61 7.55676 15.9375 7.60413C17.3958 7.60413 19.8958 8.64575 22.7083 11.1458L22.8125 11.3541ZM14.1667 34.5833C14.1857 34.2617 14.256 33.9452 14.375 33.6458L19.6875 34.375C20.689 35.8481 21.8035 37.2412 23.0208 38.5416L22.8125 38.75L22.6042 38.9583C21.184 40.2738 19.5211 41.2999 17.7083 41.9791C17.3107 42.1874 16.875 42.3132 16.4275 42.349C15.98 42.3849 15.5299 42.3298 15.1042 42.1875C13.9583 41.5625 13.3333 38.75 14.1667 34.5833Z" fill="#7572D5" fill-opacity="1.000000" fill-rule="nonzero"/>
		<path d="M25 20.4167C24.0894 20.396 23.1932 20.6471 22.4259 21.1379C21.6586 21.6289 21.0549 22.3373 20.692 23.1727C20.3291 24.0082 20.2233 24.9329 20.3882 25.8286C20.5532 26.7245 20.9813 27.5509 21.6179 28.2023C22.2545 28.8538 23.0709 29.3008 23.9626 29.4862C24.8545 29.6716 25.7813 29.5872 26.6249 29.2435C27.4684 28.8999 28.1906 28.3127 28.6989 27.5569C29.2073 26.801 29.4789 25.9109 29.4792 25C29.4795 23.8022 29.0109 22.652 28.1738 21.7954C27.3366 20.9388 26.1974 20.444 25 20.4167Z" fill="#7572D5" fill-opacity="1.000000" fill-rule="nonzero"/>

	</g>
	<g id='instagram'>
			<path d="M15.6515 2.1001L5.34841 2.1001C3.55685 2.1001 2.09998 3.5564 2.09998 5.34729L2.09998 8.77808L2.09998 15.653C2.09998 17.4438 3.55685 18.9001 5.34841 18.9001L15.6515 18.9001C17.4431 18.9001 18.9 17.4438 18.9 15.653L18.9 8.77161L18.9 5.3407C18.8934 3.5564 17.4365 2.1001 15.6515 2.1001ZM16.5834 4.03528L16.9575 4.03528L16.9575 4.40259L16.9575 6.88232L14.1159 6.88879L14.1094 4.04187L16.5834 4.03528ZM8.0981 8.77161C8.63622 8.03027 9.50904 7.53833 10.4934 7.53833C11.4778 7.53833 12.3506 8.02368 12.8887 8.77161C13.2431 9.25696 13.4465 9.854 13.4465 10.4968C13.4465 12.1237 12.1209 13.4553 10.4868 13.4553C8.85279 13.4553 7.54029 12.1237 7.54029 10.4968C7.54029 9.854 7.75029 9.25696 8.0981 8.77161ZM17.2594 15.6464C17.2594 16.532 16.5375 17.2535 15.6515 17.2535L5.34841 17.2535C4.46248 17.2535 3.7406 16.532 3.7406 15.6464L3.7406 8.77161L6.24747 8.77161C6.03091 9.30286 5.90623 9.88672 5.90623 10.4968C5.90623 13.0289 7.96685 15.0887 10.5 15.0887C13.0331 15.0887 15.0937 13.0289 15.0937 10.4968C15.0937 9.88672 14.969 9.30286 14.7525 8.77161L17.2594 8.77161L17.2594 15.6464Z" fill="#7572D5" fill-opacity="1.000000" fill-rule="nonzero"/>
	</g>
</svg>
